<svg width="13" height="14" viewBox="0 0 13 14" fill="none" xmlns="http://www.w3.org/2000/svg">
<path d="M5.53675 9.27733L5.0625 10.9375L4.58825 9.27733C4.46568 8.8485 4.23586 8.45797 3.92048 8.1426C3.60511 7.82722 3.21458 7.59741 2.78575 7.47483L1.125 7L2.78517 6.52575C3.214 6.40318 3.60453 6.17336 3.9199 5.85798C4.23527 5.54261 4.46509 5.15208 4.58767 4.72325L5.0625 3.0625L5.53675 4.72267C5.65932 5.1515 5.88914 5.54203 6.20452 5.8574C6.51989 6.17277 6.91042 6.40259 7.33925 6.52517L9 7L7.33983 7.47425C6.911 7.59682 6.52047 7.82664 6.2051 8.14202C5.88972 8.45739 5.65932 8.8485 5.53675 9.27733ZM10.4636 5.08375L10.3125 5.6875L10.1614 5.08375C10.0749 4.73759 9.89601 4.42145 9.64377 4.1691C9.39153 3.91676 9.07545 3.7377 8.72933 3.65108L8.125 3.5L8.72933 3.34892C9.07545 3.2623 9.39153 3.08324 9.64377 2.8309C9.89601 2.57855 10.0749 2.26241 10.1614 1.91625L10.3125 1.3125L10.4636 1.91625C10.5501 2.26248 10.7291 2.57868 10.9815 2.83103C11.2338 3.08338 11.55 3.26239 11.8962 3.34892L12.5 3.5L11.8962 3.65108C11.55 3.73761 11.2338 3.91662 10.9815 4.16897C10.7291 4.42132 10.5501 4.73752 10.4636 5.08375ZM9.66733 11.9974L9.4375 12.6875L9.20767 11.9974C9.14323 11.8041 9.03468 11.6285 8.8906 11.4844C8.74652 11.3403 8.57088 11.2318 8.37758 11.1673L7.6875 10.9375L8.37758 10.7077C8.57088 10.6432 8.74652 10.5347 8.8906 10.3906C9.03468 10.2465 9.14323 10.0709 9.20767 9.87758L9.4375 9.1875L9.66733 9.87758C9.73177 10.0709 9.84032 10.2465 9.9844 10.3906C10.1285 10.5347 10.3041 10.6432 10.4974 10.7077L11.1875 10.9375L10.4974 11.1673C10.3041 11.2318 10.1285 11.3403 9.9844 11.4844C9.84032 11.6285 9.73177 11.8041 9.66733 11.9974Z" stroke="#4B5563" stroke-width="0.875" stroke-linecap="round" stroke-linejoin="round"/>
</svg>
