<svg width="128" height="28" viewBox="0 0 128 28" fill="none" xmlns="http://www.w3.org/2000/svg">
<rect x="0.643066" y="0.5" width="126.857" height="27" rx="13.5" fill="white"/>
<rect x="0.643066" y="0.5" width="126.857" height="27" rx="13.5" stroke="#E5E7EB"/>
<path d="M17.4711 18L15.4791 14.58H14.1591V18H13.0671V9.636H15.7671C16.3991 9.636 16.9311 9.744 17.3631 9.96C17.8031 10.176 18.1311 10.468 18.3471 10.836C18.5631 11.204 18.6711 11.624 18.6711 12.096C18.6711 12.672 18.5031 13.18 18.1671 13.62C17.8391 14.06 17.3431 14.352 16.6791 14.496L18.7791 18H17.4711ZM14.1591 13.704H15.7671C16.3591 13.704 16.8031 13.56 17.0991 13.272C17.3951 12.976 17.5431 12.584 17.5431 12.096C17.5431 11.6 17.3951 11.216 17.0991 10.944C16.8111 10.672 16.3671 10.536 15.7671 10.536H14.1591V13.704ZM23.2358 18.108C22.6198 18.108 22.0598 17.968 21.5558 17.688C21.0598 17.408 20.6678 17.012 20.3798 16.5C20.0998 15.98 19.9598 15.38 19.9598 14.7C19.9598 14.028 20.1038 13.436 20.3918 12.924C20.6878 12.404 21.0878 12.008 21.5918 11.736C22.0958 11.456 22.6598 11.316 23.2838 11.316C23.9078 11.316 24.4718 11.456 24.9758 11.736C25.4798 12.008 25.8758 12.4 26.1638 12.912C26.4598 13.424 26.6078 14.02 26.6078 14.7C26.6078 15.38 26.4558 15.98 26.1518 16.5C25.8558 17.012 25.4518 17.408 24.9398 17.688C24.4278 17.968 23.8598 18.108 23.2358 18.108ZM23.2358 17.148C23.6278 17.148 23.9958 17.056 24.3398 16.872C24.6838 16.688 24.9598 16.412 25.1678 16.044C25.3838 15.676 25.4918 15.228 25.4918 14.7C25.4918 14.172 25.3878 13.724 25.1798 13.356C24.9718 12.988 24.6998 12.716 24.3638 12.54C24.0278 12.356 23.6638 12.264 23.2718 12.264C22.8718 12.264 22.5038 12.356 22.1678 12.54C21.8398 12.716 21.5758 12.988 21.3758 13.356C21.1758 13.724 21.0758 14.172 21.0758 14.7C21.0758 15.236 21.1718 15.688 21.3638 16.056C21.5638 16.424 21.8278 16.7 22.1558 16.884C22.4838 17.06 22.8438 17.148 23.2358 17.148ZM36.8036 11.424L34.7516 18H33.6236L32.0396 12.78L30.4556 18H29.3276L27.2636 11.424H28.3796L29.8916 16.944L31.5236 11.424H32.6396L34.2356 16.956L35.7236 11.424H36.8036ZM40.2154 18.108C39.7114 18.108 39.2594 18.024 38.8594 17.856C38.4594 17.68 38.1434 17.44 37.9114 17.136C37.6794 16.824 37.5514 16.468 37.5274 16.068H38.6554C38.6874 16.396 38.8394 16.664 39.1114 16.872C39.3914 17.08 39.7554 17.184 40.2034 17.184C40.6194 17.184 40.9474 17.092 41.1874 16.908C41.4274 16.724 41.5474 16.492 41.5474 16.212C41.5474 15.924 41.4194 15.712 41.1634 15.576C40.9074 15.432 40.5114 15.292 39.9754 15.156C39.4874 15.028 39.0874 14.9 38.7754 14.772C38.4714 14.636 38.2074 14.44 37.9834 14.184C37.7674 13.92 37.6594 13.576 37.6594 13.152C37.6594 12.816 37.7594 12.508 37.9594 12.228C38.1594 11.948 38.4434 11.728 38.8114 11.568C39.1794 11.4 39.5994 11.316 40.0714 11.316C40.7994 11.316 41.3874 11.5 41.8354 11.868C42.2834 12.236 42.5234 12.74 42.5554 13.38H41.4634C41.4394 13.036 41.2994 12.76 41.0434 12.552C40.7954 12.344 40.4594 12.24 40.0354 12.24C39.6434 12.24 39.3314 12.324 39.0994 12.492C38.8674 12.66 38.7514 12.88 38.7514 13.152C38.7514 13.368 38.8194 13.548 38.9554 13.692C39.0994 13.828 39.2754 13.94 39.4834 14.028C39.6994 14.108 39.9954 14.2 40.3714 14.304C40.8434 14.432 41.2274 14.56 41.5234 14.688C41.8194 14.808 42.0714 14.992 42.2794 15.24C42.4954 15.488 42.6074 15.812 42.6154 16.212C42.6154 16.572 42.5154 16.896 42.3154 17.184C42.1154 17.472 41.8314 17.7 41.4634 17.868C41.1034 18.028 40.6874 18.108 40.2154 18.108ZM48.4481 12.636C48.6641 12.26 48.9841 11.948 49.4081 11.7C49.8401 11.444 50.3401 11.316 50.9081 11.316C51.4921 11.316 52.0201 11.456 52.4921 11.736C52.9721 12.016 53.3481 12.412 53.6201 12.924C53.8921 13.428 54.0281 14.016 54.0281 14.688C54.0281 15.352 53.8921 15.944 53.6201 16.464C53.3481 16.984 52.9721 17.388 52.4921 17.676C52.0201 17.964 51.4921 18.108 50.9081 18.108C50.3481 18.108 49.8521 17.984 49.4201 17.736C48.9961 17.48 48.6721 17.164 48.4481 16.788V21.12H47.3561V11.424H48.4481V12.636ZM52.9121 14.688C52.9121 14.192 52.8121 13.76 52.6121 13.392C52.4121 13.024 52.1401 12.744 51.7961 12.552C51.4601 12.36 51.0881 12.264 50.6801 12.264C50.2801 12.264 49.9081 12.364 49.5641 12.564C49.2281 12.756 48.9561 13.04 48.7481 13.416C48.5481 13.784 48.4481 14.212 48.4481 14.7C48.4481 15.196 48.5481 15.632 48.7481 16.008C48.9561 16.376 49.2281 16.66 49.5641 16.86C49.9081 17.052 50.2801 17.148 50.6801 17.148C51.0881 17.148 51.4601 17.052 51.7961 16.86C52.1401 16.66 52.4121 16.376 52.6121 16.008C52.8121 15.632 52.9121 15.192 52.9121 14.688ZM61.4655 14.46C61.4655 14.668 61.4535 14.888 61.4295 15.12H56.1735C56.2135 15.768 56.4335 16.276 56.8335 16.644C57.2415 17.004 57.7335 17.184 58.3095 17.184C58.7815 17.184 59.1735 17.076 59.4855 16.86C59.8055 16.636 60.0295 16.34 60.1575 15.972H61.3335C61.1575 16.604 60.8055 17.12 60.2775 17.52C59.7495 17.912 59.0935 18.108 58.3095 18.108C57.6855 18.108 57.1255 17.968 56.6295 17.688C56.1415 17.408 55.7575 17.012 55.4775 16.5C55.1975 15.98 55.0575 15.38 55.0575 14.7C55.0575 14.02 55.1935 13.424 55.4655 12.912C55.7375 12.4 56.1175 12.008 56.6055 11.736C57.1015 11.456 57.6695 11.316 58.3095 11.316C58.9335 11.316 59.4855 11.452 59.9655 11.724C60.4455 11.996 60.8135 12.372 61.0695 12.852C61.3335 13.324 61.4655 13.86 61.4655 14.46ZM60.3375 14.232C60.3375 13.816 60.2455 13.46 60.0615 13.164C59.8775 12.86 59.6255 12.632 59.3055 12.48C58.9935 12.32 58.6455 12.24 58.2615 12.24C57.7095 12.24 57.2375 12.416 56.8455 12.768C56.4615 13.12 56.2415 13.608 56.1855 14.232H60.3375ZM63.9989 12.492C64.1909 12.116 64.4629 11.824 64.8149 11.616C65.1749 11.408 65.6109 11.304 66.1229 11.304V12.432H65.8349C64.6109 12.432 63.9989 13.096 63.9989 14.424V18H62.9069V11.424H63.9989V12.492ZM71.6747 12.636C71.8907 12.26 72.2107 11.948 72.6347 11.7C73.0667 11.444 73.5667 11.316 74.1347 11.316C74.7187 11.316 75.2467 11.456 75.7187 11.736C76.1987 12.016 76.5747 12.412 76.8467 12.924C77.1187 13.428 77.2547 14.016 77.2547 14.688C77.2547 15.352 77.1187 15.944 76.8467 16.464C76.5747 16.984 76.1987 17.388 75.7187 17.676C75.2467 17.964 74.7187 18.108 74.1347 18.108C73.5747 18.108 73.0787 17.984 72.6467 17.736C72.2227 17.48 71.8987 17.164 71.6747 16.788V21.12H70.5827V11.424H71.6747V12.636ZM76.1387 14.688C76.1387 14.192 76.0387 13.76 75.8387 13.392C75.6387 13.024 75.3667 12.744 75.0227 12.552C74.6867 12.36 74.3147 12.264 73.9067 12.264C73.5067 12.264 73.1347 12.364 72.7907 12.564C72.4547 12.756 72.1827 13.04 71.9747 13.416C71.7747 13.784 71.6747 14.212 71.6747 14.7C71.6747 15.196 71.7747 15.632 71.9747 16.008C72.1827 16.376 72.4547 16.66 72.7907 16.86C73.1347 17.052 73.5067 17.148 73.9067 17.148C74.3147 17.148 74.6867 17.052 75.0227 16.86C75.3667 16.66 75.6387 16.376 75.8387 16.008C76.0387 15.632 76.1387 15.192 76.1387 14.688ZM78.2841 14.688C78.2841 14.016 78.4201 13.428 78.6921 12.924C78.9641 12.412 79.3361 12.016 79.8081 11.736C80.2881 11.456 80.8201 11.316 81.4041 11.316C81.9801 11.316 82.4801 11.44 82.9041 11.688C83.3281 11.936 83.6441 12.248 83.8521 12.624V11.424H84.9561V18H83.8521V16.776C83.6361 17.16 83.3121 17.48 82.8801 17.736C82.4561 17.984 81.9601 18.108 81.3921 18.108C80.8081 18.108 80.2801 17.964 79.8081 17.676C79.3361 17.388 78.9641 16.984 78.6921 16.464C78.4201 15.944 78.2841 15.352 78.2841 14.688ZM83.8521 14.7C83.8521 14.204 83.7521 13.772 83.5521 13.404C83.3521 13.036 83.0801 12.756 82.7361 12.564C82.4001 12.364 82.0281 12.264 81.6201 12.264C81.2121 12.264 80.8401 12.36 80.5041 12.552C80.1681 12.744 79.9001 13.024 79.7001 13.392C79.5001 13.76 79.4001 14.192 79.4001 14.688C79.4001 15.192 79.5001 15.632 79.7001 16.008C79.9001 16.376 80.1681 16.66 80.5041 16.86C80.8401 17.052 81.2121 17.148 81.6201 17.148C82.0281 17.148 82.4001 17.052 82.7361 16.86C83.0801 16.66 83.3521 16.376 83.5521 16.008C83.7521 15.632 83.8521 15.196 83.8521 14.7ZM89.5134 11.316C90.0814 11.316 90.5774 11.44 91.0014 11.688C91.4334 11.936 91.7534 12.248 91.9614 12.624V11.424H93.0654V18.144C93.0654 18.744 92.9374 19.276 92.6814 19.74C92.4254 20.212 92.0574 20.58 91.5774 20.844C91.1054 21.108 90.5534 21.24 89.9214 21.24C89.0574 21.24 88.3374 21.036 87.7614 20.628C87.1854 20.22 86.8454 19.664 86.7414 18.96H87.8214C87.9414 19.36 88.1894 19.68 88.5654 19.92C88.9414 20.168 89.3934 20.292 89.9214 20.292C90.5214 20.292 91.0094 20.104 91.3854 19.728C91.7694 19.352 91.9614 18.824 91.9614 18.144V16.764C91.7454 17.148 91.4254 17.468 91.0014 17.724C90.5774 17.98 90.0814 18.108 89.5134 18.108C88.9294 18.108 88.3974 17.964 87.9174 17.676C87.4454 17.388 87.0734 16.984 86.8014 16.464C86.5294 15.944 86.3934 15.352 86.3934 14.688C86.3934 14.016 86.5294 13.428 86.8014 12.924C87.0734 12.412 87.4454 12.016 87.9174 11.736C88.3974 11.456 88.9294 11.316 89.5134 11.316ZM91.9614 14.7C91.9614 14.204 91.8614 13.772 91.6614 13.404C91.4614 13.036 91.1894 12.756 90.8454 12.564C90.5094 12.364 90.1374 12.264 89.7294 12.264C89.3214 12.264 88.9494 12.36 88.6134 12.552C88.2774 12.744 88.0094 13.024 87.8094 13.392C87.6094 13.76 87.5094 14.192 87.5094 14.688C87.5094 15.192 87.6094 15.632 87.8094 16.008C88.0094 16.376 88.2774 16.66 88.6134 16.86C88.9494 17.052 89.3214 17.148 89.7294 17.148C90.1374 17.148 90.5094 17.052 90.8454 16.86C91.1894 16.66 91.4614 16.376 91.6614 16.008C91.8614 15.632 91.9614 15.196 91.9614 14.7ZM100.911 14.46C100.911 14.668 100.899 14.888 100.875 15.12H95.6188C95.6588 15.768 95.8788 16.276 96.2788 16.644C96.6868 17.004 97.1788 17.184 97.7548 17.184C98.2268 17.184 98.6188 17.076 98.9308 16.86C99.2508 16.636 99.4748 16.34 99.6028 15.972H100.779C100.603 16.604 100.251 17.12 99.7228 17.52C99.1948 17.912 98.5388 18.108 97.7548 18.108C97.1308 18.108 96.5708 17.968 96.0748 17.688C95.5868 17.408 95.2028 17.012 94.9228 16.5C94.6428 15.98 94.5028 15.38 94.5028 14.7C94.5028 14.02 94.6388 13.424 94.9108 12.912C95.1828 12.4 95.5628 12.008 96.0508 11.736C96.5468 11.456 97.1148 11.316 97.7548 11.316C98.3788 11.316 98.9308 11.452 99.4108 11.724C99.8908 11.996 100.259 12.372 100.515 12.852C100.779 13.324 100.911 13.86 100.911 14.46ZM99.7828 14.232C99.7828 13.816 99.6908 13.46 99.5068 13.164C99.3228 12.86 99.0708 12.632 98.7508 12.48C98.4388 12.32 98.0908 12.24 97.7068 12.24C97.1548 12.24 96.6828 12.416 96.2908 12.768C95.9068 13.12 95.6868 13.608 95.6308 14.232H99.7828Z" fill="#4B5563"/>
<path d="M112.072 16.5L115.474 12.75H108.669L112.072 16.5Z" fill="#4B5563"/>
</svg>
