<svg width="75" height="28" viewBox="0 0 75 28" fill="none" xmlns="http://www.w3.org/2000/svg">
<rect x="0.5" y="0.5" width="74" height="27" rx="13.5" fill="white"/>
<rect x="0.5" y="0.5" width="74" height="27" rx="13.5" stroke="#E5E7EB"/>
<g clip-path="url(#clip0_301_11763)">
<path d="M20.405 9H15.2617C14.3825 9 13.6667 9.71541 13.6667 10.5954C13.6667 11.0212 13.8325 11.4217 14.1337 11.7233L16.5833 14.1725V15.6667C16.5833 15.7979 16.645 15.9212 16.75 16L18.4167 17.25C18.49 17.305 18.5783 17.3333 18.6667 17.3333C18.73 17.3333 18.7942 17.3187 18.8529 17.2896C18.9942 17.2192 19.0833 17.0746 19.0833 16.9167V14.1725L21.5329 11.7229C21.8342 11.4217 22 11.0208 22 10.595C22 9.71541 21.2842 8.99958 20.405 8.99958V9ZM20.9437 11.1342L18.3721 13.7054C18.2937 13.7837 18.25 13.8896 18.25 14V16.0833L17.4167 15.4583V14C17.4167 13.8896 17.3729 13.7833 17.2946 13.7054L14.7229 11.1342C14.5792 10.99 14.5 10.7987 14.5 10.5954C14.5 10.1754 14.8417 9.83333 15.2617 9.83333H20.405C20.825 9.83333 21.1667 10.175 21.1667 10.5954C21.1667 10.7987 21.0875 10.9904 20.9437 11.1342ZM17.4167 17.75V18.5833C17.4167 18.7412 17.3275 18.8854 17.1862 18.9562C17.1271 18.9858 17.0633 19 17 19C16.9117 19 16.8233 18.9717 16.75 18.9167L15.0833 17.6667C14.9783 17.5883 14.9167 17.4646 14.9167 17.3333V15.8392L12.4671 13.39C12.1658 13.0883 12 12.6879 12 12.2621C12 11.7929 12.2054 11.3496 12.5638 11.0454C12.74 10.8962 13.0025 10.9179 13.1513 11.0933C13.3 11.2687 13.2787 11.5317 13.1033 11.6808C12.9321 11.8262 12.8337 12.0383 12.8337 12.2625C12.8337 12.4658 12.9129 12.6575 13.0567 12.8012L15.6283 15.3725C15.7067 15.4508 15.7504 15.5567 15.7504 15.6671V17.1254L16.5838 17.7504C16.5838 17.5204 16.77 17.3337 17.0004 17.3337C17.2308 17.3337 17.4171 17.5204 17.4171 17.7504L17.4167 17.75Z" fill="#4B5563"/>
</g>
<path d="M33.652 9.636V10.524H30.016V13.344H32.968V14.232H30.016V18H28.924V9.636H33.652ZM35.5349 10.356C35.3269 10.356 35.1509 10.284 35.0069 10.14C34.8629 9.996 34.7909 9.82 34.7909 9.612C34.7909 9.404 34.8629 9.228 35.0069 9.084C35.1509 8.94 35.3269 8.868 35.5349 8.868C35.7349 8.868 35.9029 8.94 36.0389 9.084C36.1829 9.228 36.2549 9.404 36.2549 9.612C36.2549 9.82 36.1829 9.996 36.0389 10.14C35.9029 10.284 35.7349 10.356 35.5349 10.356ZM36.0629 11.424V18H34.9709V11.424H36.0629ZM39.016 9.12V18H37.924V9.12H39.016ZM42.2091 12.324V16.2C42.2091 16.52 42.2771 16.748 42.4131 16.884C42.5491 17.012 42.7851 17.076 43.1211 17.076H43.9251V18H42.9411C42.3331 18 41.8771 17.86 41.5731 17.58C41.2691 17.3 41.1171 16.84 41.1171 16.2V12.324H40.2651V11.424H41.1171V9.768H42.2091V11.424H43.9251V12.324H42.2091ZM51.2482 14.46C51.2482 14.668 51.2362 14.888 51.2122 15.12H45.9562C45.9962 15.768 46.2162 16.276 46.6162 16.644C47.0242 17.004 47.5162 17.184 48.0922 17.184C48.5642 17.184 48.9562 17.076 49.2682 16.86C49.5882 16.636 49.8122 16.34 49.9402 15.972H51.1162C50.9402 16.604 50.5882 17.12 50.0602 17.52C49.5322 17.912 48.8762 18.108 48.0922 18.108C47.4682 18.108 46.9082 17.968 46.4122 17.688C45.9242 17.408 45.5402 17.012 45.2602 16.5C44.9802 15.98 44.8402 15.38 44.8402 14.7C44.8402 14.02 44.9762 13.424 45.2482 12.912C45.5202 12.4 45.9002 12.008 46.3882 11.736C46.8842 11.456 47.4522 11.316 48.0922 11.316C48.7162 11.316 49.2682 11.452 49.7482 11.724C50.2282 11.996 50.5962 12.372 50.8522 12.852C51.1162 13.324 51.2482 13.86 51.2482 14.46ZM50.1202 14.232C50.1202 13.816 50.0282 13.46 49.8442 13.164C49.6602 12.86 49.4082 12.632 49.0882 12.48C48.7762 12.32 48.4282 12.24 48.0442 12.24C47.4922 12.24 47.0202 12.416 46.6282 12.768C46.2442 13.12 46.0242 13.608 45.9682 14.232H50.1202ZM53.7816 12.492C53.9736 12.116 54.2456 11.824 54.5976 11.616C54.9576 11.408 55.3936 11.304 55.9056 11.304V12.432H55.6176C54.3936 12.432 53.7816 13.096 53.7816 14.424V18H52.6896V11.424H53.7816V12.492ZM59.4942 18.108C58.9902 18.108 58.5382 18.024 58.1382 17.856C57.7382 17.68 57.4222 17.44 57.1902 17.136C56.9582 16.824 56.8302 16.468 56.8062 16.068H57.9342C57.9662 16.396 58.1182 16.664 58.3902 16.872C58.6702 17.08 59.0342 17.184 59.4822 17.184C59.8982 17.184 60.2262 17.092 60.4662 16.908C60.7062 16.724 60.8262 16.492 60.8262 16.212C60.8262 15.924 60.6982 15.712 60.4422 15.576C60.1862 15.432 59.7902 15.292 59.2542 15.156C58.7662 15.028 58.3662 14.9 58.0542 14.772C57.7502 14.636 57.4862 14.44 57.2622 14.184C57.0462 13.92 56.9382 13.576 56.9382 13.152C56.9382 12.816 57.0382 12.508 57.2382 12.228C57.4382 11.948 57.7222 11.728 58.0902 11.568C58.4582 11.4 58.8782 11.316 59.3502 11.316C60.0782 11.316 60.6662 11.5 61.1142 11.868C61.5622 12.236 61.8022 12.74 61.8342 13.38H60.7422C60.7182 13.036 60.5782 12.76 60.3222 12.552C60.0742 12.344 59.7382 12.24 59.3142 12.24C58.9222 12.24 58.6102 12.324 58.3782 12.492C58.1462 12.66 58.0302 12.88 58.0302 13.152C58.0302 13.368 58.0982 13.548 58.2342 13.692C58.3782 13.828 58.5542 13.94 58.7622 14.028C58.9782 14.108 59.2742 14.2 59.6502 14.304C60.1222 14.432 60.5062 14.56 60.8022 14.688C61.0982 14.808 61.3502 14.992 61.5582 15.24C61.7742 15.488 61.8862 15.812 61.8942 16.212C61.8942 16.572 61.7942 16.896 61.5942 17.184C61.3942 17.472 61.1102 17.7 60.7422 17.868C60.3822 18.028 59.9662 18.108 59.4942 18.108Z" fill="#4B5563"/>
<defs>
<clipPath id="clip0_301_11763">
<rect width="10" height="10" fill="white" transform="translate(12 9)"/>
</clipPath>
</defs>
</svg>
